<?xml version="1.0" standalone="no"?>
<!DOCTYPE svg PUBLIC "-//W3C//DTD SVG 20010904//EN"
 "http://www.w3.org/TR/2001/REC-SVG-20010904/DTD/svg10.dtd">
<svg version="1.0" xmlns="http://www.w3.org/2000/svg"
 width="700.000000pt" height="700.000000pt" viewBox="0 0 700.000000 700.000000"
 preserveAspectRatio="xMidYMid meet">
<metadata>
Created by potrace 1.14, written by Peter Selinger 2001-2017
</metadata>
<g transform="translate(0.000000,700.000000) scale(0.100000,-0.100000)"
fill="#000000" stroke="none">
<path d="M147 6103 c-2 -5 -4 -55 -3 -113 l1 -105 95 1 c52 0 142 4 200 8 58
4 134 9 170 12 190 11 240 14 295 19 33 2 105 7 160 11 55 3 123 7 150 9 45 4
87 6 290 19 33 2 110 7 170 11 61 3 127 8 148 11 25 3 36 1 32 -6 -3 -5 -15
-10 -25 -10 -10 0 -63 -9 -117 -19 -54 -11 -110 -22 -125 -25 -15 -2 -63 -12
-105 -20 -43 -9 -89 -19 -103 -21 -14 -3 -41 -8 -60 -11 -19 -3 -43 -7 -52
-10 -10 -3 -28 -7 -41 -9 -13 -3 -113 -23 -223 -44 -216 -44 -221 -44 -309
-61 -81 -15 -505 -99 -531 -105 -19 -4 -20 -11 -20 -180 0 -96 4 -175 7 -175
6 0 191 49 839 225 69 19 226 61 350 95 215 59 357 97 390 105 38 9 430 116
474 129 109 33 17 -7 -224 -97 -140 -53 -435 -164 -655 -247 -220 -84 -434
-165 -475 -180 -295 -110 -538 -202 -555 -210 -11 -5 -49 -20 -85 -33 l-65
-24 0 -347 c-1 -190 2 -346 5 -346 3 0 98 57 210 126 113 70 252 156 310 191
119 73 218 134 580 358 234 145 378 234 448 276 15 9 101 63 192 119 91 56
184 114 208 129 24 14 116 71 205 126 209 129 244 150 232 138 -9 -9 -455
-327 -1110 -791 -104 -75 -210 -150 -235 -168 -25 -18 -82 -59 -127 -91 -45
-32 -265 -188 -489 -348 -224 -159 -412 -293 -418 -297 -12 -8 -18 -698 -6
-698 6 0 64 51 194 169 74 68 91 83 155 139 35 32 71 64 80 73 9 8 79 71 156
139 77 69 145 129 151 135 6 5 48 44 94 85 45 41 88 80 94 85 6 6 99 89 206
185 107 96 197 177 200 180 3 3 68 61 145 130 77 68 142 126 145 130 3 3 50
46 105 95 55 49 105 94 111 100 10 9 114 101 164 145 29 26 182 164 212 191
16 15 58 53 95 85 37 33 74 66 82 75 9 8 79 71 156 140 77 68 142 126 145 129
165 156 -159 -169 -1295 -1302 l-1400 -1396 0 -561 c-1 -308 0 -559 2 -558 1
2 37 48 80 104 43 55 247 318 454 584 207 266 760 977 1228 1579 468 602 860
1106 871 1120 11 14 70 90 132 170 61 80 117 150 122 156 6 7 43 53 81 104
155 204 146 182 -38 -87 -172 -252 -780 -1146 -923 -1358 -64 -93 -158 -233
-211 -310 -52 -77 -166 -243 -251 -370 -86 -126 -239 -351 -340 -500 -101
-148 -227 -333 -279 -410 -52 -77 -176 -260 -276 -407 -100 -148 -288 -424
-417 -614 l-235 -346 -1 -627 c-1 -344 0 -633 2 -642 4 -14 26 -16 178 -15 96
0 176 3 179 6 4 5 65 129 227 465 37 77 114 234 170 350 56 116 120 248 142
295 22 47 101 208 174 359 74 150 134 274 134 276 0 2 57 119 126 261 70 143
150 309 179 369 29 61 92 191 140 290 48 99 113 234 145 300 32 66 101 210
155 320 53 110 123 254 155 320 55 113 116 241 302 625 44 91 111 228 148 305
37 77 109 226 160 330 51 105 114 235 140 290 26 55 104 215 172 355 68 140
130 270 137 288 8 18 15 31 17 29 4 -3 -50 -141 -91 -232 -7 -16 -64 -154
-125 -305 -62 -151 -118 -288 -125 -305 -7 -16 -38 -91 -68 -165 -272 -665
-819 -1999 -827 -2015 -5 -11 -45 -110 -90 -220 -44 -110 -85 -210 -90 -222
-6 -13 -14 -33 -20 -45 -10 -24 -179 -436 -235 -573 -18 -44 -186 -454 -374
-912 -187 -458 -341 -834 -341 -836 0 -2 286 -4 636 -4 447 0 637 4 640 11 5
13 60 276 120 576 3 14 10 45 15 70 6 25 13 56 15 70 4 20 54 263 69 330 1 8
17 85 35 170 18 85 34 164 36 175 3 11 9 40 14 65 5 25 25 122 45 215 19 94
38 181 40 195 2 14 29 142 59 285 44 209 144 690 170 815 3 14 7 36 10 50 7
33 25 120 30 145 5 24 120 575 146 700 31 147 142 678 147 705 2 14 17 86 33
160 16 74 31 146 33 160 3 14 14 68 25 120 12 52 24 110 27 129 3 19 7 37 9
40 2 3 7 22 10 41 5 34 40 204 60 299 14 63 46 220 51 251 9 54 17 50 9 -5 -3
-28 -8 -58 -10 -69 -2 -10 -6 -44 -9 -75 -4 -31 -8 -63 -10 -71 -2 -8 -6 -33
-9 -55 -5 -38 -43 -301 -51 -355 -2 -14 -7 -50 -10 -80 -3 -30 -8 -62 -10 -70
-2 -8 -7 -40 -10 -70 -3 -30 -8 -62 -10 -70 -2 -8 -7 -40 -10 -70 -3 -30 -10
-82 -15 -115 -5 -33 -12 -80 -15 -105 -3 -25 -8 -52 -10 -60 -2 -8 -7 -40 -10
-70 -3 -30 -8 -66 -10 -80 -7 -38 -13 -79 -21 -140 -9 -73 -11 -88 -18 -135
-10 -68 -55 -387 -62 -440 -3 -27 -8 -59 -10 -70 -2 -11 -7 -45 -9 -75 -3 -30
-8 -62 -10 -70 -2 -8 -7 -35 -10 -60 -6 -47 -15 -114 -20 -140 -2 -8 -6 -42
-10 -75 -3 -32 -8 -62 -10 -65 -2 -3 -6 -36 -10 -75 -3 -38 -8 -72 -10 -75 -2
-3 -6 -31 -9 -61 -3 -30 -8 -65 -10 -79 -2 -14 -7 -46 -10 -71 -4 -25 -9 -57
-11 -70 -2 -13 -9 -60 -15 -104 -6 -44 -13 -95 -15 -113 -3 -17 -7 -47 -10
-65 -2 -17 -9 -68 -15 -112 -6 -44 -13 -91 -15 -105 -2 -14 -6 -45 -10 -70 -3
-25 -8 -56 -10 -70 -4 -25 -5 -33 -25 -175 -5 -44 -12 -91 -14 -105 -3 -14 -7
-47 -11 -75 -3 -27 -8 -63 -10 -80 -7 -44 -74 -523 -81 -570 -3 -22 -11 -80
-19 -130 -7 -49 -16 -112 -20 -140 -3 -27 -8 -61 -10 -75 -11 -78 -18 -127
-20 -145 -7 -51 -24 -175 -31 -220 -2 -16 -6 -41 -9 -55 -2 -14 -7 -47 -10
-75 -3 -27 -7 -61 -10 -75 -2 -14 -6 -41 -9 -61 l-5 -36 888 0 889 0 -3 29
c-9 70 -26 187 -30 207 -2 13 -7 43 -9 66 -3 24 -12 92 -21 152 -9 59 -18 126
-21 148 -2 22 -7 51 -9 65 -2 14 -7 45 -10 70 -3 25 -10 72 -15 105 -5 33 -12
83 -15 110 -3 28 -8 62 -10 78 -12 69 -15 87 -25 167 -17 131 -20 153 -25 180
-3 14 -7 43 -10 65 -3 22 -7 54 -10 70 -3 17 -7 50 -10 75 -6 43 -41 298 -50
350 -2 14 -7 50 -10 80 -4 30 -9 64 -11 75 -2 11 -6 40 -9 65 -3 25 -7 56 -10
70 -7 45 -15 104 -21 155 -3 28 -8 59 -10 70 -2 11 -11 72 -20 135 -8 63 -17
126 -19 140 -2 14 -7 43 -10 65 -3 22 -7 55 -10 73 -2 18 -9 67 -15 110 -6 43
-13 89 -15 102 -2 13 -7 44 -10 69 -3 25 -19 141 -35 256 -17 116 -33 230 -36
255 -2 25 -6 52 -9 60 -2 8 -7 40 -10 70 -3 30 -10 80 -15 110 -5 30 -12 80
-15 110 -3 30 -8 62 -10 70 -2 8 -6 38 -10 65 -3 28 -15 111 -25 185 -11 74
-22 151 -24 170 -3 19 -8 53 -11 75 -3 22 -7 54 -10 70 -3 17 -7 48 -10 70 -3
22 -10 72 -15 110 -6 39 -13 88 -15 110 -3 22 -8 58 -12 80 -3 22 -7 49 -8 60
-2 11 -8 56 -14 100 -7 44 -14 96 -17 115 -2 19 -12 82 -20 140 -8 58 -17 123
-19 145 -3 22 -7 49 -9 60 -2 12 -7 48 -10 80 -5 50 -1 42 19 -45 13 -58 26
-116 29 -130 2 -14 18 -90 35 -170 16 -80 61 -296 100 -480 38 -184 74 -355
80 -380 5 -25 13 -61 16 -80 3 -19 8 -42 10 -50 2 -8 7 -28 9 -45 3 -16 13
-61 21 -100 8 -38 24 -113 34 -165 11 -52 43 -205 71 -340 28 -134 53 -258 56
-275 3 -16 9 -46 14 -65 5 -19 16 -69 24 -110 8 -41 34 -163 56 -270 22 -107
48 -229 56 -270 9 -41 18 -85 20 -97 8 -45 95 -462 114 -548 25 -111 29 -131
36 -175 3 -19 7 -42 10 -50 3 -8 14 -58 24 -110 11 -52 38 -183 60 -290 22
-107 59 -283 81 -390 22 -107 42 -204 45 -215 9 -45 25 -121 29 -143 2 -13 6
-31 9 -40 3 -9 8 -31 11 -48 2 -17 20 -105 39 -195 19 -90 37 -177 41 -194 3
-16 15 -77 28 -135 l22 -105 638 -1 c350 0 637 1 637 2 0 5 -39 104 -55 139
-7 17 -68 165 -136 330 -193 476 -219 539 -229 560 -5 11 -31 74 -58 140 -27
66 -83 203 -125 305 -118 288 -286 697 -322 785 -75 185 -558 1363 -570 1390
-15 34 -60 145 -205 500 -57 138 -124 302 -150 365 -26 63 -73 178 -104 255
-72 176 -71 173 -89 215 -9 19 -70 170 -137 335 -129 317 -129 318 -179 434
-17 41 -30 76 -28 77 2 2 19 -31 39 -74 36 -75 118 -247 273 -567 118 -243
220 -454 300 -620 40 -82 111 -229 158 -325 46 -96 118 -245 159 -330 42 -85
115 -236 163 -335 48 -99 109 -225 135 -280 26 -55 91 -190 145 -300 53 -110
128 -263 165 -340 37 -77 107 -221 155 -320 48 -99 111 -229 140 -290 29 -60
94 -195 145 -300 51 -104 123 -253 160 -330 37 -77 107 -221 155 -320 48 -99
116 -238 150 -310 34 -71 106 -220 160 -330 53 -110 124 -256 157 -325 33 -69
62 -127 65 -130 2 -3 84 -5 182 -6 l177 -1 -1 641 -1 641 -29 47 c-17 25 -76
113 -131 195 -147 214 -293 429 -451 663 -77 113 -217 320 -313 460 -322 473
-397 585 -478 705 -45 66 -85 125 -89 130 -4 6 -46 66 -92 135 -47 69 -108
159 -136 200 -28 41 -123 181 -210 310 -88 129 -176 260 -197 290 -21 30 -43
62 -48 70 -6 8 -110 161 -231 340 -122 179 -287 422 -367 540 -80 118 -183
271 -230 340 -47 69 -78 118 -70 110 9 -8 262 -332 563 -720 301 -388 560
-721 575 -740 15 -19 108 -138 206 -265 98 -126 183 -235 189 -241 5 -7 19
-24 30 -39 17 -24 159 -206 237 -306 35 -44 432 -555 461 -593 57 -74 670
-863 685 -881 9 -11 40 -50 67 -87 28 -37 52 -67 55 -68 3 0 5 250 5 556 l0
556 -1405 1401 c-773 771 -1385 1383 -1360 1361 25 -22 72 -64 105 -94 88 -80
231 -209 257 -232 13 -11 52 -46 88 -78 36 -32 74 -67 86 -77 21 -18 164 -147
215 -193 61 -55 184 -166 384 -345 116 -103 230 -206 255 -229 25 -23 86 -77
135 -121 50 -44 92 -83 95 -86 3 -3 52 -48 110 -99 58 -52 121 -108 140 -126
19 -17 62 -55 95 -85 33 -29 62 -55 65 -58 3 -3 25 -24 50 -45 25 -22 86 -76
135 -121 50 -45 137 -124 195 -175 58 -51 143 -128 190 -170 47 -43 101 -91
120 -109 19 -17 37 -31 40 -31 4 0 6 155 6 344 l-1 345 -35 26 c-19 15 -240
172 -490 350 -250 177 -482 342 -515 366 -109 77 -780 554 -802 569 -108 75
-563 402 -563 405 0 2 60 -33 132 -79 73 -45 184 -114 246 -152 62 -38 131
-81 155 -96 23 -15 53 -33 67 -41 14 -7 196 -119 405 -249 209 -129 470 -290
580 -358 110 -67 222 -137 250 -154 27 -17 57 -35 67 -41 10 -5 121 -74 248
-153 126 -78 236 -145 243 -148 10 -3 13 64 12 343 l0 347 -210 79 c-115 43
-223 84 -240 91 -16 8 -111 44 -210 80 -99 37 -225 85 -280 106 -55 21 -221
84 -370 140 -284 107 -377 142 -435 165 -19 7 -91 34 -160 60 -69 26 -138 51
-153 57 -15 6 -26 13 -24 15 4 4 53 -9 542 -143 132 -36 272 -74 310 -84 39
-10 120 -31 180 -48 61 -16 171 -46 245 -66 74 -21 142 -39 150 -41 8 -2 147
-40 307 -84 161 -43 305 -82 321 -86 l28 -6 0 175 c-1 96 -3 177 -6 179 -3 3
-21 7 -40 10 -19 3 -60 10 -90 16 -30 7 -68 14 -85 17 -16 2 -37 7 -45 9 -8 2
-31 7 -50 10 -19 3 -42 8 -50 10 -8 2 -30 7 -47 10 -29 5 -205 39 -258 51 -11
2 -46 9 -77 14 -90 17 -87 16 -378 74 -151 30 -288 57 -305 60 -16 3 -95 19
-175 36 l-145 30 90 -6 c50 -3 119 -7 155 -9 36 -3 103 -7 150 -10 47 -3 114
-7 150 -10 36 -2 108 -7 160 -10 52 -3 115 -8 140 -10 25 -2 95 -7 155 -10 61
-4 128 -8 150 -10 22 -2 92 -6 155 -10 63 -3 135 -8 160 -10 34 -3 164 -11
260 -17 23 -1 26 12 26 117 l1 115 -3353 0 c-1844 0 -3355 -3 -3357 -7z m3436
-153 c3 -11 1 -20 -4 -20 -5 0 -9 9 -9 20 0 11 2 20 4 20 2 0 6 -9 9 -20z"/>
</g>
</svg>
